<svg xmlns="http://www.w3.org/2000/svg" xmlns:xlink="http://www.w3.org/1999/xlink" viewBox="0 0 500 500" width="500" height="500" preserveAspectRatio="xMidYMid meet" style="width: 100%; height: 100%; transform: translate3d(0px, 0px, 0px); content-visibility: visible;"><defs><clipPath id="__lottie_element_964"><rect width="500" height="500" x="0" y="0"/></clipPath><clipPath id="__lottie_element_966"><path d="M0,0 L500,0 L500,500 L0,500z"/></clipPath></defs><g clip-path="url(#__lottie_element_964)"><g clip-path="url(#__lottie_element_966)" transform="matrix(1,0,0,1,0,0)" opacity="1" style="display: block;"><g class="primary design" transform="matrix(1,0,0,1,250.00399780273438,292.66259765625)" opacity="1" style="display: block;"><g opacity="1" transform="matrix(1,0,0,1,0,0)"><path stroke-linecap="round" stroke-linejoin="round" fill-opacity="0" class="primary" stroke="rgb(0,0,0)" stroke-opacity="1" stroke-width="31.3" d=" M192.70899963378906,0 C166.03500366210938,83.3290023803711 92.08300018310547,151.04200744628906 0,151.04200744628906 C-92.08300018310547,151.04200744628906 -166.0469970703125,83.3290023803711 -192.70899963378906,0 C-166.95327758789062,75.29425048828125 -92.07920837402344,135.25131225585938 0.003791964380070567,135.25131225585938 C92.0867919921875,135.25131225585938 165.05003356933594,76.24208068847656 192.70899963378906,0z"/></g></g><g class="primary design" transform="matrix(1,0,0,1,250.0050048828125,284.6697082519531)" opacity="1" style="display: none;"><g opacity="1" transform="matrix(1,0,0,1,0,0)"><path stroke-linecap="round" stroke-linejoin="round" fill-opacity="0" class="primary" stroke="rgb(0,0,0)" stroke-opacity="1" stroke-width="31.3" d=" M29.843000411987305,83.38700103759766 C20.518999099731445,86.7239990234375 10.472000122070312,88.54199981689453 0,88.54199981689453 C-12.498000144958496,88.54199981689453 -24.391000747680664,85.9530029296875 -35.172000885009766,81.28099822998047"/></g></g><g class="primary design" transform="matrix(1,0,0,1,250,250)" opacity="1" style="display: none;"><g opacity="1" transform="matrix(1,0,0,1,0,0)"><path class="primary" fill="rgb(0,0,0)" fill-opacity="1" d=" M0.004999999888241291,104.19100189208984 C-57.446998596191406,104.19100189208984 -104.18800354003906,57.45100021362305 -104.18800354003906,-0.0010000000474974513 C-104.18800354003906,-57.452999114990234 -57.446998596191406,-104.19300079345703 0.004999999888241291,-104.19300079345703 C57.457000732421875,-104.19300079345703 104.1969985961914,-57.452999114990234 104.1969985961914,-0.0010000000474974513 C104.1969985961914,57.45100021362305 57.457000732421875,104.19100189208984 0.004999999888241291,104.19100189208984z M0.004999999888241291,-72.89299774169922 C-40.1870002746582,-72.89299774169922 -72.88700103759766,-40.194000244140625 -72.88700103759766,-0.0010000000474974513 C-72.88700103759766,40.19200134277344 -40.1870002746582,72.89099884033203 0.004999999888241291,72.89099884033203 C40.196998596191406,72.89099884033203 72.89600372314453,40.19200134277344 72.89600372314453,-0.0010000000474974513 C72.89600372314453,-40.194000244140625 40.196998596191406,-72.89299774169922 0.004999999888241291,-72.89299774169922z"/></g></g><g class="primary design" transform="matrix(1,0,0,1,250,250)" opacity="1" style="display: none;"><g opacity="1" transform="matrix(1,0,0,1,0,0)"><path class="primary" fill="rgb(0,0,0)" fill-opacity="1" d=" M0.004000000189989805,166.69500732421875 C-47.435001373291016,166.69500732421875 -92.66999816894531,150.1580047607422 -130.80999755859375,118.87200164794922 C-166.0399932861328,89.97200012207031 -193.31500244140625,49.45100021362305 -207.61099243164062,4.7729997634887695 C-208.60400390625,1.6710000038146973 -208.60400390625,-1.6640000343322754 -207.61099243164062,-4.765999794006348 C-193.3159942626953,-49.44599914550781 -166.04100036621094,-89.96900177001953 -130.80999755859375,-118.86900329589844 C-92.6709976196289,-150.1540069580078 -47.43600082397461,-166.68899536132812 0.004000000189989805,-166.68899536132812 C47.44300079345703,-166.68899536132812 92.67500305175781,-150.1540069580078 130.81199645996094,-118.87000274658203 C166.0399932861328,-89.9729995727539 193.3159942626953,-49.44900131225586 207.6179962158203,-4.767000198364258 C208.61099243164062,-1.6640000343322754 208.61099243164062,1.6710000038146973 207.6179962158203,4.77400016784668 C193.3159942626953,49.452999114990234 166.03900146484375,89.9739990234375 130.81199645996094,118.87200164794922 C92.67400360107422,150.1580047607422 47.44200134277344,166.69500732421875 0.004000000189989805,166.69500732421875z M-176.2100067138672,0.003000000026077032 C-152.56399536132812,68.1719970703125 -89.75,135.39500427246094 0.004000000189989805,135.39500427246094 C89.74500274658203,135.39500427246094 152.56199645996094,68.1729965209961 176.2169952392578,0.003000000026077032 C152.56399536132812,-68.16699981689453 89.74800109863281,-135.38999938964844 0.004000000189989805,-135.38999938964844 C-89.75299835205078,-135.38999938964844 -152.56500244140625,-68.16600036621094 -176.2100067138672,0.003000000026077032z"/></g></g></g></g></svg>