<svg width="100%" height="100%" style="overflow:visible;" preserveAspectRatio="none" viewBox="0 0 23 15" fill="none" xmlns="http://www.w3.org/2000/svg">
<g clip-path="url(#clip0_30_45)">
<rect width="23" height="15" rx="1" fill="#D8E2F3"/>
<path d="M14.4214 5C13.2853 5 12.2701 5.56793 12.2701 6.61722C12.2701 7.82055 14.0706 7.90367 14.0706 8.50819C14.0706 8.76273 13.7682 8.99059 13.2516 8.99059C12.5185 8.99059 11.9706 8.6722 11.9706 8.6722L11.7362 9.73106C11.7362 9.73106 12.3674 10 13.2054 10C14.4475 10 15.4248 9.40417 15.4248 8.33696C15.4248 7.06541 13.6168 6.98476 13.6168 6.42367C13.6168 6.22424 13.865 6.00578 14.3801 6.00578C14.9613 6.00578 15.4355 6.23734 15.4355 6.23734L15.6649 5.21467C15.6649 5.21467 15.1489 5 14.4214 5ZM4.02752 5.07719L4 5.23155C4 5.23155 4.47795 5.31591 4.90841 5.48421C5.46266 5.67717 5.50216 5.78952 5.59549 6.13844L6.61267 9.9204H7.97625L10.0769 5.07719H8.71647L7.36667 8.37011L6.81588 5.57887C6.76537 5.25942 6.50951 5.07719 6.19631 5.07719H4.02752ZM10.6239 5.07719L9.55674 9.92038H10.854L11.9175 5.07717L10.6239 5.07719ZM17.8594 5.07719C17.5465 5.07719 17.3807 5.23872 17.2592 5.52099L15.3585 9.92038H16.7189L16.9822 9.18714H18.6396L18.7996 9.92038H20L18.9528 5.07719H17.8594ZM18.0362 6.38567L18.4395 8.20308H17.3592L18.0362 6.38567Z" fill="#1434CB"/>
</g>
<rect x="0.25" y="0.25" width="22.5" height="14.5" rx="0.75" stroke="#D0DCF1" stroke-width="0.5"/>
<defs>
<clipPath id="clip0_30_45">
<rect width="23" height="15" rx="1" fill="white"/>
</clipPath>
</defs>
</svg>
