<svg width="100%" height="100%" style="overflow:visible;" preserveAspectRatio="none" viewBox="0 0 20 20" fill="none" xmlns="http://www.w3.org/2000/svg">
<g clip-path="url(#clip0_38_894)">
<path d="M20.4895 10.6868C20.4895 9.86743 20.4214 9.26949 20.2742 8.64941H10.6992V12.3477H16.3195C16.2062 13.2668 15.5943 14.6509 14.2346 15.581L14.2155 15.7048L17.2429 17.9967L17.4527 18.0171C19.3789 16.2786 20.4895 13.7208 20.4895 10.6868Z" fill="#4285F4"/>
<path d="M10.6991 20.4312C13.4526 20.4312 15.7642 19.5453 17.4526 18.0173L14.2345 15.5812C13.3733 16.1681 12.2175 16.5777 10.6991 16.5777C8.0023 16.5777 5.7134 14.8393 4.89747 12.4365L4.77787 12.4464L1.62991 14.8271L1.58875 14.939C3.26576 18.1944 6.71048 20.4312 10.6991 20.4312Z" fill="#34A853"/>
<path d="M4.8976 12.4363C4.68231 11.8163 4.55771 11.1518 4.55771 10.4653C4.55771 9.77878 4.68231 9.11443 4.88627 8.49435L4.88057 8.36229L1.69316 5.94336L1.58888 5.99183C0.897698 7.34275 0.501099 8.85977 0.501099 10.4653C0.501099 12.0709 0.897698 13.5879 1.58888 14.9388L4.8976 12.4363Z" fill="#FBBC05"/>
<path d="M10.6991 4.35336C12.6141 4.35336 13.9058 5.16168 14.6424 5.83718L17.5205 3.09107C15.7529 1.4855 13.4526 0.5 10.6991 0.5C6.71048 0.5 3.26576 2.73672 1.58875 5.99214L4.88614 8.49466C5.7134 6.09183 8.0023 4.35336 10.6991 4.35336Z" fill="#EB4335"/>
</g>
<defs>
<clipPath id="clip0_38_894">
<rect width="20" height="20" fill="white" transform="translate(0.5 0.5)"/>
</clipPath>
</defs>
</svg>
