<svg width="100%" height="100%" style="overflow:visible;" preserveAspectRatio="none" viewBox="0 0 41 30" fill="none" xmlns="http://www.w3.org/2000/svg">
<g clip-path="url(#clip0_210_1153)">
<path d="M13.5625 8.59375C13.3984 8.59375 13.2637 8.54102 13.1582 8.43555C13.0527 8.33008 13 8.19531 13 8.03125V7.46875C13 7.30469 13.0527 7.16992 13.1582 7.06445C13.2637 6.95898 13.3984 6.90625 13.5625 6.90625H28.1875C28.3516 6.90625 28.4863 6.95898 28.5918 7.06445C28.6973 7.16992 28.75 7.30469 28.75 7.46875V8.03125C28.75 8.19531 28.6973 8.33008 28.5918 8.43555C28.4863 8.54102 28.3516 8.59375 28.1875 8.59375H13.5625ZM28.1875 15.9062C28.3516 15.9062 28.4863 15.959 28.5918 16.0645C28.6973 16.1699 28.75 16.3047 28.75 16.4688V17.0312C28.75 17.1953 28.6973 17.3301 28.5918 17.4355C28.4863 17.541 28.3516 17.5938 28.1875 17.5938H13.5625C13.3984 17.5938 13.2637 17.541 13.1582 17.4355C13.0527 17.3301 13 17.1953 13 17.0312V16.4688C13 16.3047 13.0527 16.1699 13.1582 16.0645C13.2637 15.959 13.3984 15.9062 13.5625 15.9062H28.1875ZM28.293 2.40625C28.3867 2.40625 28.4688 2.42383 28.5391 2.45898C28.6094 2.49414 28.6621 2.54688 28.6973 2.61719C28.7324 2.6875 28.75 2.76953 28.75 2.86328V3.63672C28.75 3.75391 28.7031 3.85938 28.6094 3.95312C28.5156 4.04688 28.4102 4.09375 28.293 4.09375H19.082C18.9648 4.09375 18.8594 4.04688 18.7656 3.95312C18.6719 3.85938 18.625 3.75391 18.625 3.63672V2.86328C18.625 2.74609 18.6719 2.64062 18.7656 2.54688C18.8594 2.45312 18.9648 2.40625 19.082 2.40625H28.293ZM28.293 11.4062C28.4102 11.4062 28.5156 11.4531 28.6094 11.5469C28.7031 11.6406 28.75 11.7461 28.75 11.8633V12.6367C28.75 12.7539 28.7031 12.8594 28.6094 12.9531C28.5156 13.0469 28.4102 13.0938 28.293 13.0938H19.082C18.9883 13.0938 18.9062 13.0762 18.8359 13.041C18.7656 13.0059 18.7129 12.9531 18.6777 12.8828C18.6426 12.8125 18.625 12.7305 18.625 12.6367V11.8633C18.625 11.7461 18.6719 11.6406 18.7656 11.5469C18.8594 11.4531 18.9648 11.4062 19.082 11.4062H28.293Z" fill="#3B3B3B"/>
</g>
<defs>
<clipPath id="clip0_210_1153">
<rect width="15.75" height="18" fill="white" transform="matrix(1 0 0 -1 13 19)"/>
</clipPath>
</defs>
</svg>
