<svg width="100%" height="100%" style="overflow:visible;" preserveAspectRatio="none" viewBox="0 0 15.75 18" fill="none" xmlns="http://www.w3.org/2000/svg">
<g clip-path="url(#clip0_210_1150)">
<path d="M12.375 4.5H15.75V15.1875C15.75 15.9609 15.4746 16.623 14.9238 17.1738C14.373 17.7246 13.7109 18 12.9375 18H2.8125C2.03906 18 1.37695 17.7246 0.826172 17.1738C0.275391 16.623 0 15.9609 0 15.1875V4.5H3.375C3.375 3.25781 3.81445 2.19727 4.69336 1.31836C5.57227 0.439453 6.63281 0 7.875 0C9.11719 0 10.1777 0.439453 11.0566 1.31836C11.9355 2.19727 12.375 3.25781 12.375 4.5ZM9.86133 2.51367C9.86133 2.51367 9.72363 2.37598 9.44824 2.10059C9.17285 1.8252 8.64844 1.6875 7.875 1.6875C7.10156 1.6875 6.43945 1.96289 5.88867 2.51367C5.33789 3.06445 5.0625 3.72656 5.0625 4.5H10.6875C10.6875 3.72656 10.4121 3.06445 9.86133 2.51367ZM14.0625 15.1875V6.1875H12.375V7.59375C12.375 7.82812 12.293 8.02734 12.1289 8.19141C11.9648 8.35547 11.7656 8.4375 11.5312 8.4375C11.2969 8.4375 11.0977 8.35547 10.9336 8.19141C10.7695 8.02734 10.6875 7.82812 10.6875 7.59375V6.1875H5.0625V7.59375C5.0625 7.82812 4.98047 8.02734 4.81641 8.19141C4.65234 8.35547 4.45312 8.4375 4.21875 8.4375C3.98438 8.4375 3.78516 8.35547 3.62109 8.19141C3.45703 8.02734 3.375 7.82812 3.375 7.59375V6.1875H1.6875V15.1875C1.6875 15.4922 1.79883 15.7559 2.02148 15.9785C2.24414 16.2012 2.50781 16.3125 2.8125 16.3125H12.9375C13.2422 16.3125 13.5059 16.2012 13.7285 15.9785C13.9512 15.7559 14.0625 15.4922 14.0625 15.1875Z" fill="#3B3B3B"/>
</g>
<defs>
<clipPath id="clip0_210_1150">
<rect width="15.75" height="18" fill="white" transform="matrix(1 0 0 -1 0 18)"/>
</clipPath>
</defs>
</svg>
