<svg width="100%" height="100%" style="overflow:visible;" preserveAspectRatio="none" viewBox="0 0 24 19" fill="none" xmlns="http://www.w3.org/2000/svg">
<path d="M20.55 8.3125C20.55 8.3125 20.375 8.51042 20.025 8.90625C19.675 9.30208 19 9.5 18 9.5C17 9.5 16.15 9.10417 15.45 8.3125C14.75 7.52083 14.4 6.55952 14.4 5.42857C14.4 4.29762 14.75 3.33631 15.45 2.54464C16.15 1.75298 17 1.35714 18 1.35714C19 1.35714 19.85 1.75298 20.55 2.54464C21.25 3.33631 21.6 4.29762 21.6 5.42857C21.6 6.55952 21.25 7.52083 20.55 8.3125ZM19.275 3.98661C19.275 3.98661 19.1875 3.88765 19.0125 3.68973C18.8375 3.49182 18.5 3.39286 18 3.39286C17.5 3.39286 17.075 3.59077 16.725 3.98661C16.375 4.38244 16.2 4.8631 16.2 5.42857C16.2 5.99405 16.375 6.4747 16.725 6.87054C17.075 7.26637 17.5 7.46429 18 7.46429C18.5 7.46429 18.925 7.26637 19.275 6.87054C19.625 6.4747 19.8 5.99405 19.8 5.42857C19.8 4.8631 19.625 4.38244 19.275 3.98661ZM10.2 10.3482C11.725 10.3482 12.875 11.0126 13.65 12.3415C14.15 13.1615 14.4 14.0662 14.4 15.0558V16.9643C14.4 17.5298 14.225 18.0104 13.875 18.4062C13.525 18.8021 13.1 19 12.6 19H1.8C1.3 19 0.875 18.8021 0.525 18.4062C0.175 18.0104 0 17.5298 0 16.9643V15.0558C0 14.0662 0.2375 13.1615 0.7125 12.3415C1.5125 11.0126 2.675 10.3482 4.2 10.3482C4.65 10.3482 5.0875 10.4189 5.5125 10.5603C6.0625 10.7582 6.61875 10.8571 7.18125 10.8571C7.74375 10.8571 8.3125 10.7582 8.8875 10.5603C9.3125 10.4189 9.75 10.3482 10.2 10.3482ZM12.6 16.9643V15.0558C12.6 14.4621 12.45 13.9178 12.15 13.423C11.85 12.9282 11.45 12.5818 10.95 12.3839C10.55 12.2143 10.15 12.2143 9.75 12.3839C8.925 12.7232 8.075 12.8929 7.2 12.8929C6.325 12.8929 5.475 12.7232 4.65 12.3839C4.25 12.2143 3.85 12.2143 3.45 12.3839C2.975 12.5818 2.58125 12.9282 2.26875 13.423C1.95625 13.9178 1.8 14.4621 1.8 15.0558V16.9643H12.6ZM10.1625 8.10045C10.1625 8.10045 9.95625 8.33371 9.54375 8.80022C9.13125 9.26674 8.35 9.5 7.2 9.5C6.05 9.5 5.0625 9.03348 4.2375 8.10045C3.4125 7.16741 3 6.0506 3 4.75C3 3.44941 3.4125 2.33259 4.2375 1.39955C5.0625 0.466518 6.05 0 7.2 0C8.35 0 9.3375 0.466518 10.1625 1.39955C10.9875 2.33259 11.4 3.44941 11.4 4.75C11.4 6.0506 10.9875 7.16741 10.1625 8.10045ZM8.8875 2.84152C8.8875 2.84152 8.76875 2.70722 8.53125 2.43862C8.29375 2.17002 7.85 2.03572 7.2 2.03572C6.55 2.03572 5.9875 2.30432 5.5125 2.84152C5.0375 3.37872 4.8 4.01488 4.8 4.75C4.8 5.48512 5.0375 6.12128 5.5125 6.65848C5.9875 7.19569 6.55 7.46429 7.2 7.46429C7.85 7.46429 8.4125 7.19569 8.8875 6.65848C9.3625 6.12128 9.6 5.48512 9.6 4.75C9.6 4.01488 9.3625 3.37872 8.8875 2.84152ZM23.4 12.0871C23.8 12.7656 24 13.529 24 14.3772V15.9464C24 16.4271 23.8563 16.83 23.5688 17.1551C23.2812 17.4803 22.925 17.6429 22.5 17.6429H15.525C15.575 17.4167 15.6 17.1905 15.6 16.9643V15.6071H22.2V14.3348C22.2 13.939 22.1 13.5714 21.9 13.2321C21.6 12.7232 21.1375 12.4688 20.5125 12.4688C20.3625 12.4688 20.0375 12.5394 19.5375 12.6808C19.0375 12.8222 18.525 12.8929 18 12.8929C17.475 12.8929 16.9625 12.8222 16.4625 12.6808C15.9625 12.5394 15.6375 12.4688 15.4875 12.4688C15.3625 12.4688 15.2375 12.4829 15.1125 12.5112C14.9625 12.1719 14.8125 11.8609 14.6625 11.5781C14.5125 11.3237 14.3125 11.0551 14.0625 10.7723C14.5375 10.5461 15.0125 10.433 15.4875 10.433C15.8375 10.433 16.2375 10.5037 16.6875 10.6451C17.1375 10.7865 17.575 10.8571 18 10.8571C18.425 10.8571 18.8625 10.7865 19.3125 10.6451C19.7625 10.5037 20.1625 10.433 20.5125 10.433C21.7625 10.433 22.725 10.9844 23.4 12.0871Z" fill="#3B3B3B"/>
</svg>
