<svg width="100%" height="100%" style="overflow:visible;" preserveAspectRatio="none" viewBox="0 0 18 18" fill="none" xmlns="http://www.w3.org/2000/svg">
<g clip-path="url(#clip0_210_1145)">
<path d="M16.1015 2.25C16.9452 2.97656 17.5077 3.83789 17.789 4.83398C18.0702 5.83008 18.0819 6.78516 17.8241 7.69922C17.5663 8.61328 17.121 9.39844 16.4882 10.0547L10.3358 16.3125C9.96083 16.6875 9.51552 16.875 8.99989 16.875C8.48427 16.875 8.03896 16.6875 7.66396 16.3125L1.51161 10.0547C0.8788 9.39844 0.433488 8.60742 0.175675 7.68164C-0.0821374 6.75586 -0.0704186 5.80078 0.210831 4.81641C0.492081 3.83203 1.05458 2.97656 1.89833 2.25C2.90614 1.40625 4.0956 1.03711 5.46669 1.14258C6.83778 1.24805 8.01552 1.79297 8.99989 2.77734C9.98427 1.79297 11.162 1.24805 12.5331 1.14258C13.9042 1.03711 15.0936 1.40625 16.1015 2.25ZM15.2929 8.85938C15.9726 8.15625 16.3124 7.29492 16.3124 6.27539C16.3124 5.25586 15.8905 4.34766 15.0468 3.55078C14.3436 2.98828 13.5292 2.74219 12.6034 2.8125C11.6776 2.88281 10.8866 3.25781 10.2304 3.9375L8.99989 5.16797L7.76942 3.9375C7.11317 3.25781 6.32216 2.88281 5.39638 2.8125C4.4706 2.74219 3.65614 2.98828 2.95302 3.55078C2.10927 4.34766 1.68739 5.25586 1.68739 6.27539C1.68739 7.29492 2.02724 8.15625 2.70693 8.85938L8.89442 15.1172C8.96474 15.2109 9.03505 15.2109 9.10536 15.1172L15.2929 8.85938Z" fill="#3B3B3B"/>
</g>
<defs>
<clipPath id="clip0_210_1145">
<rect width="18" height="18" fill="white" transform="matrix(1 0 0 -1 0 18)"/>
</clipPath>
</defs>
</svg>
