<svg width="100%" height="100%" style="overflow:visible;" preserveAspectRatio="none" viewBox="0 0 20 20" fill="none" xmlns="http://www.w3.org/2000/svg">
<g clip-path="url(#clip0_37_1274)">
<path d="M20.4895 10.6868C20.4895 9.86743 20.4214 9.26949 20.2742 8.64941H10.6992V12.3477H16.3195C16.2062 13.2668 15.5943 14.6509 14.2346 15.581L14.2155 15.7048L17.2429 17.9967L17.4527 18.0171C19.3789 16.2786 20.4895 13.7208 20.4895 10.6868Z" fill="#4285F4"/>
<path d="M10.6993 20.4312C13.4527 20.4312 15.7643 19.5453 17.4527 18.0173L14.2346 15.5812C13.3734 16.1681 12.2176 16.5777 10.6993 16.5777C8.00242 16.5777 5.71352 14.8393 4.89759 12.4365L4.77799 12.4464L1.63003 14.8271L1.58887 14.939C3.26588 18.1944 6.7106 20.4312 10.6993 20.4312Z" fill="#34A853"/>
<path d="M4.89748 12.4363C4.68219 11.8163 4.55759 11.1518 4.55759 10.4653C4.55759 9.77878 4.68219 9.11443 4.88615 8.49435L4.88045 8.36229L1.69304 5.94336L1.58876 5.99183C0.897576 7.34275 0.500977 8.85977 0.500977 10.4653C0.500977 12.0709 0.897576 13.5879 1.58876 14.9388L4.89748 12.4363Z" fill="#FBBC05"/>
<path d="M10.6993 4.35336C12.6142 4.35336 13.906 5.16168 14.6425 5.83718L17.5207 3.09107C15.753 1.4855 13.4527 0.5 10.6993 0.5C6.7106 0.5 3.26588 2.73672 1.58887 5.99214L4.88626 8.49466C5.71352 6.09183 8.00242 4.35336 10.6993 4.35336Z" fill="#EB4335"/>
</g>
<defs>
<clipPath id="clip0_37_1274">
<rect width="20" height="20" fill="white" transform="translate(0.5 0.5)"/>
</clipPath>
</defs>
</svg>
