<svg width="100%" height="100%" style="overflow:visible;" preserveAspectRatio="none" viewBox="0 0 44 30" fill="none" xmlns="http://www.w3.org/2000/svg">
<g clip-path="url(#clip0_210_1140)">
<path d="M30.8594 17.4883C31.0703 17.6758 31.0703 17.875 30.8594 18.0859L30.0859 18.8594C29.875 19.0703 29.6758 19.0703 29.4883 18.8594L25.2344 14.6055C25.1406 14.5117 25.0938 14.418 25.0938 14.3242V13.832C23.7109 15.0273 22.1172 15.625 20.3125 15.625C18.2969 15.625 16.5742 14.9102 15.1445 13.4805C13.7148 12.0508 13 10.3281 13 8.3125C13 6.29688 13.7148 4.57422 15.1445 3.14453C16.5742 1.71484 18.2969 1 20.3125 1C22.3281 1 24.0508 1.71484 25.4805 3.14453C26.9102 4.57422 27.625 6.29688 27.625 8.3125C27.625 10.1172 27.0273 11.7109 25.832 13.0938H26.3242C26.4414 13.0938 26.5352 13.1406 26.6055 13.2344L30.8594 17.4883ZM16.3398 12.2852C16.3398 12.2852 16.6152 12.5605 17.166 13.1113C17.7168 13.6621 18.7656 13.9375 20.3125 13.9375C21.8594 13.9375 23.1836 13.3867 24.2852 12.2852C25.3867 11.1836 25.9375 9.85938 25.9375 8.3125C25.9375 6.76562 25.3867 5.44141 24.2852 4.33984C23.1836 3.23828 21.8594 2.6875 20.3125 2.6875C18.7656 2.6875 17.4414 3.23828 16.3398 4.33984C15.2383 5.44141 14.6875 6.76562 14.6875 8.3125C14.6875 9.85938 15.2383 11.1836 16.3398 12.2852Z" fill="#3B3B3B"/>
</g>
<defs>
<clipPath id="clip0_210_1140">
<rect width="18" height="18" fill="white" transform="matrix(1 0 0 -1 13 19)"/>
</clipPath>
</defs>
</svg>
